# xmcd
#
# Track frame offsets:
#	150
#	10299
#	23208
#	33223
#	46308
#	57862
#	72267
#	82727
#	93777
#	104115
#	117436
#	128681
#	140815
#	152985
#	164343
#	176651
#
# Disc length: 2473 seconds
#
# Revision: 0
# Processed by: cddbd v1.5.1PL2 Copyright (c) Steve Scherf et al.
# Submitted via: dBpowerAMP V4.0
#
DISCID=d309a710
DTITLE=Eddy Arnold - Greatest Hits and Favorites
DYEAR=2005
DGENRE=Country
TTITLE0=There's Been A Change In Me
TTITLE1=May The Good Lord Bless And Keep You
TTITLE2=Bundle Of Southern Sunshine
TTITLE3=Call Her Your Sweetheart
TTITLE4=Easy On The Eyes
TTITLE5=Anything That's Part Of You
TTITLE6=Older And Bolder
TTITLE7=I'd Trady All Of My Tomorrows (For Just One Yesterday)
TTITLE8=Free Home Demonstration
TTITLE9=How's The World Treating You
TTITLE10=Mama, Come Get Your Baby Boy
TTITLE11=If I Never Get To Heaven
TTITLE12=My Everything
TTITLE13=Second Fling
TTITLE14=This Is The Thanks I Get (For Loving You)
TTITLE15=Hep Cat Baby
EXTD=
EXTT0=
EXTT1=
EXTT2=
EXTT3=
EXTT4=
EXTT5=
EXTT6=
EXTT7=
EXTT8=
EXTT9=
EXTT10=
EXTT11=
EXTT12=
EXTT13=
EXTT14=
EXTT15=
PLAYORDER=
